<?xml version="1.0" encoding="UTF-8"?>
<!DOCTYPE svg PUBLIC "-//W3C//DTD SVG 1.1//EN" "http://www.w3.org/Graphics/SVG/1.1/DTD/svg11.dtd">
<svg xmlns="http://www.w3.org/2000/svg" version="1.1" width="61px" height="72px" style="shape-rendering:geometricPrecision; text-rendering:geometricPrecision; image-rendering:optimizeQuality; fill-rule:evenodd; clip-rule:evenodd" xmlns:xlink="http://www.w3.org/1999/xlink">
<g><path style="opacity:0.966" fill="#67c9d7" d="M 0.5,-0.5 C 19.8333,-0.5 39.1667,-0.5 58.5,-0.5C 58.9321,0.709515 59.5987,1.70951 60.5,2.5C 60.5,24.1667 60.5,45.8333 60.5,67.5C 59.5116,68.795 58.5116,70.1283 57.5,71.5C 38.8333,71.5 20.1667,71.5 1.5,71.5C 1.16667,70.5 0.5,69.8333 -0.5,69.5C -0.5,46.5 -0.5,23.5 -0.5,0.5C 0.166667,0.5 0.5,0.166667 0.5,-0.5 Z"/></g>
<g><path style="opacity:1" fill="#f6fbfc" d="M 22.5,10.5 C 39.2793,7.92354 47.446,14.9235 47,31.5C 45.3333,32.8333 43.6667,32.8333 42,31.5C 40.8878,20.7208 35.0544,16.5542 24.5,19C 20.8735,21.2513 19.7069,24.4179 21,28.5C 25,32.5 29,36.5 33,40.5C 33.7203,42.1124 33.5536,43.6124 32.5,45C 30.5,45.6667 28.5,45.6667 26.5,45C 21.6667,40.1667 16.8333,35.3333 12,30.5C 10.9702,25.7205 11.9702,21.3871 15,17.5C 17.3959,14.9334 19.8959,12.6 22.5,10.5 Z"/></g>
<g><path style="opacity:1" fill="#f6fbfc" d="M 27.5,24.5 C 29.1992,24.3398 30.8659,24.5065 32.5,25C 37.3333,29.8333 42.1667,34.6667 47,39.5C 47.1864,55.2966 39.353,61.7966 23.5,59C 14.6678,55.5086 10.8345,49.0086 12,39.5C 13.8138,38.2404 15.6471,38.2404 17.5,39.5C 18.903,42.8752 20.403,46.2086 22,49.5C 25.9331,51.4777 30.0998,51.9777 34.5,51C 38.253,49.3262 39.753,46.4928 39,42.5C 35,38.5 31,34.5 27,30.5C 26.3224,28.4024 26.4891,26.4024 27.5,24.5 Z"/></g>
</svg>
